<?xml version="1.0" standalone="no"?><!DOCTYPE svg PUBLIC "-//W3C//DTD SVG 1.1//EN" "http://www.w3.org/Graphics/SVG/1.1/DTD/svg11.dtd"><svg t="1525304875799" class="icon" style="" viewBox="0 0 1317 1024" version="1.1" xmlns="http://www.w3.org/2000/svg" p-id="1082" xmlns:xlink="http://www.w3.org/1999/xlink" width="128.61328125" height="100"><defs><style type="text/css"></style></defs><path d="M1013.728 477.728l10.272 180.576q2.272 39.424-46.848 73.152t-134.272 53.44-184.576 19.712-184.576-19.712-134.272-53.44-46.848-73.152l10.272-180.576 328 103.424q12.576 4 27.424 4t27.424-4zM1316.576 292.576q0 13.152-12.576 17.728l-640 201.152q-2.272 0.576-5.728 0.576t-5.728-0.576l-372.576-117.728q-24.576 19.424-40.576 63.712t-19.424 102.016q36 20.576 36 62.272 0 39.424-33.152 61.152l33.152 247.424q1.152 8-4.576 14.272-5.152 6.272-13.728 6.272l-109.728 0q-8.576 0-13.728-6.272-5.728-6.272-4.576-14.272l33.152-247.424q-33.152-21.728-33.152-61.152 0-41.728 37.152-63.424 6.272-118.272 56-188.576l-190.272-59.424q-12.576-4.576-12.576-17.728t12.576-17.728l640-201.152q2.272-0.576 5.728-0.576t5.728 0.576l640 201.152q12.576 4.576 12.576 17.728z" p-id="1083" fill="#1296db"></path></svg>